<mxfile host="app.diagrams.net" agent="Mozilla/5.0 (Windows NT 10.0; Win64; x64) AppleWebKit/537.36 (KHTML, like Gecko) Chrome/130.0.0.0 Safari/537.36 Edg/130.0.0.0" version="24.8.4">
  <diagram name="PÃ¡gina-1" id="aVTpbgcS3B3bR7W7rDOc">
    <mxGraphModel dx="1426" dy="783" grid="1" gridSize="10" guides="1" tooltips="1" connect="1" arrows="1" fold="1" page="1" pageScale="1" pageWidth="827" pageHeight="1169" math="0" shadow="0">
      <root>
        <mxCell id="0" />
        <mxCell id="1" parent="0" />
        <mxCell id="wl_NK4S-1doc5e73Vvbc-4" style="edgeStyle=orthogonalEdgeStyle;rounded=0;orthogonalLoop=1;jettySize=auto;html=1;" edge="1" parent="1" source="wl_NK4S-1doc5e73Vvbc-1" target="wl_NK4S-1doc5e73Vvbc-2">
          <mxGeometry relative="1" as="geometry" />
        </mxCell>
        <mxCell id="wl_NK4S-1doc5e73Vvbc-1" value="Inicio" style="ellipse;whiteSpace=wrap;html=1;fillColor=#dae8fc;strokeColor=#6c8ebf;" vertex="1" parent="1">
          <mxGeometry x="180" y="80" width="120" height="80" as="geometry" />
        </mxCell>
        <mxCell id="wl_NK4S-1doc5e73Vvbc-5" style="edgeStyle=orthogonalEdgeStyle;rounded=0;orthogonalLoop=1;jettySize=auto;html=1;entryX=0.5;entryY=0;entryDx=0;entryDy=0;" edge="1" parent="1" source="wl_NK4S-1doc5e73Vvbc-2">
          <mxGeometry relative="1" as="geometry">
            <mxPoint x="240" y="310" as="targetPoint" />
          </mxGeometry>
        </mxCell>
        <mxCell id="wl_NK4S-1doc5e73Vvbc-2" value="LED ALTO" style="rounded=1;whiteSpace=wrap;html=1;fillColor=#d5e8d4;strokeColor=#82b366;" vertex="1" parent="1">
          <mxGeometry x="180" y="200" width="120" height="60" as="geometry" />
        </mxCell>
        <mxCell id="wl_NK4S-1doc5e73Vvbc-7" value="fin" style="ellipse;whiteSpace=wrap;html=1;" vertex="1" parent="1">
          <mxGeometry x="180" y="310" width="120" height="80" as="geometry" />
        </mxCell>
      </root>
    </mxGraphModel>
  </diagram>
</mxfile>
